<svg width="32" height="32" viewBox="0 0 32 32" fill="none" xmlns="http://www.w3.org/2000/svg">
<path d="M17.0414 3.16665C16.5334 2.53332 15.4667 2.53332 14.9587 3.16665L4.29204 16.5C4.13556 16.6963 4.0376 16.9327 4.00942 17.1821C3.98123 17.4316 4.02396 17.6839 4.1327 17.9101C4.24144 18.1364 4.41178 18.3274 4.62416 18.4612C4.83654 18.595 5.08235 18.6662 5.33337 18.6666H10.6667V28C10.6667 28.3536 10.8072 28.6927 11.0572 28.9428C11.3073 29.1928 11.6464 29.3333 12 29.3333H20C20.3537 29.3333 20.6928 29.1928 20.9428 28.9428C21.1929 28.6927 21.3334 28.3536 21.3334 28V18.6666H26.6667C26.9177 18.6662 27.1635 18.595 27.3759 18.4612C27.5883 18.3274 27.7586 18.1364 27.8674 17.9101C27.9761 17.6839 28.0188 17.4316 27.9907 17.1821C27.9625 16.9327 27.8645 16.6963 27.708 16.5L17.0414 3.16665ZM20 16H18.6667V26.6667H13.3334V16H8.10804L16 6.13465L23.892 16H20Z" fill="#F2F1E3" fill-opacity="0.3"/>
<path d="M20 16H18.6667V26.6667H13.3334V16H8.10804L16 6.13465L23.892 16H20Z" fill="#F2F1E3" fill-opacity="0.3"/>
</svg>
