<svg width="34" height="25" viewBox="0 0 34 25" fill="none" xmlns="http://www.w3.org/2000/svg">
<g clip-path="url(#clip0_128_134)">
<path d="M21.6364 15.625C17.4636 15.625 9.27273 17.6562 9.27273 21.875V25H34V21.875C34 17.6562 25.8091 15.625 21.6364 15.625ZM21.6364 12.5C23.2759 12.5 24.8483 11.8415 26.0076 10.6694C27.1669 9.49732 27.8182 7.9076 27.8182 6.25C27.8182 4.5924 27.1669 3.00268 26.0076 1.83058C24.8483 0.65848 23.2759 0 21.6364 0C19.9968 0 18.4245 0.65848 17.2652 1.83058C16.1058 3.00268 15.4545 4.5924 15.4545 6.25C15.4545 7.9076 16.1058 9.49732 17.2652 10.6694C18.4245 11.8415 19.9968 12.5 21.6364 12.5ZM6.18182 17.1875L5.25455 16.4062C2.16364 13.4375 0 11.5625 0 9.21875C0 7.34375 1.54545 5.78125 3.4 5.78125C4.48182 5.78125 5.56364 6.25 6.18182 7.03125C6.8 6.25 7.88182 5.78125 8.96364 5.78125C10.8182 5.78125 12.3636 7.1875 12.3636 9.21875C12.3636 11.5625 10.2 13.4375 7.10909 16.4062L6.18182 17.1875Z" fill="#F2F1E3" fill-opacity="0.3"/>
</g>
<defs>
<clipPath id="clip0_128_134">
<rect width="34" height="25" fill="white"/>
</clipPath>
</defs>
</svg>
