<svg width="30" height="30" viewBox="0 0 30 30" fill="none" xmlns="http://www.w3.org/2000/svg">
<path d="M26.3 3.14815H23.6V2.61111C23.6 2.18382 23.4293 1.77403 23.1255 1.47188C22.8217 1.16974 22.4097 1 21.98 1C21.5504 1 21.1383 1.16974 20.8345 1.47188C20.5307 1.77403 20.36 2.18382 20.36 2.61111V3.14815H10.64V2.61111C10.64 2.18382 10.4693 1.77403 10.1655 1.47188C9.8617 1.16974 9.44965 1 9.02 1C8.59035 1 8.1783 1.16974 7.87449 1.47188C7.57068 1.77403 7.4 2.18382 7.4 2.61111V3.14815H4.7C3.98392 3.14815 3.29716 3.43105 2.79081 3.93462C2.28446 4.43819 2 5.12118 2 5.83333V27.3148C2 28.027 2.28446 28.71 2.79081 29.2135C3.29716 29.7171 3.98392 30 4.7 30H26.3C27.0161 30 27.7028 29.7171 28.2092 29.2135C28.7155 28.71 29 28.027 29 27.3148V5.83333C29 5.12118 28.7155 4.43819 28.2092 3.93462C27.7028 3.43105 27.0161 3.14815 26.3 3.14815ZM7.4 6.37037C7.4 6.79766 7.57068 7.20746 7.87449 7.5096C8.1783 7.81174 8.59035 7.98148 9.02 7.98148C9.44965 7.98148 9.8617 7.81174 10.1655 7.5096C10.4693 7.20746 10.64 6.79766 10.64 6.37037H20.36C20.36 6.79766 20.5307 7.20746 20.8345 7.5096C21.1383 7.81174 21.5504 7.98148 21.98 7.98148C22.4097 7.98148 22.8217 7.81174 23.1255 7.5096C23.4293 7.20746 23.6 6.79766 23.6 6.37037H25.76V9.59259H5.24V6.37037H7.4ZM5.24 26.7778V12.8148H25.76V26.7778H5.24ZM21.5062 15.4342C21.6572 15.5839 21.777 15.7617 21.8588 15.9576C21.9405 16.1534 21.9826 16.3634 21.9826 16.5754C21.9826 16.7875 21.9405 16.9974 21.8588 17.1933C21.777 17.3891 21.6572 17.5669 21.5062 17.7166L15.0262 24.1611C14.8756 24.3113 14.6968 24.4304 14.4999 24.5118C14.303 24.5931 14.0919 24.6349 13.8786 24.6349C13.6654 24.6349 13.4543 24.5931 13.2574 24.5118C13.0605 24.4304 12.8817 24.3113 12.7311 24.1611L9.49115 20.9388C9.18681 20.6362 9.01584 20.2257 9.01584 19.7976C9.01584 19.3696 9.18681 18.9591 9.49115 18.6564C9.79549 18.3538 10.2083 18.1837 10.6386 18.1837C11.069 18.1837 11.4818 18.3538 11.7861 18.6564L13.88 20.7361L19.2139 15.4302C19.3646 15.2807 19.5434 15.1621 19.7403 15.0814C19.9371 15.0007 20.1479 14.9593 20.3608 14.9597C20.5737 14.9601 20.7845 15.0022 20.981 15.0836C21.1775 15.165 21.356 15.2842 21.5062 15.4342Z" fill="#F2F1E3" fill-opacity="0.3"/>
</svg>
