<svg width="40" height="40" viewBox="0 0 40 40" fill="none" xmlns="http://www.w3.org/2000/svg">
<path d="M36.3651 4.03003C35.9005 3.64357 35.3399 3.39032 34.7428 3.29722C34.1457 3.20412 33.5346 3.27467 32.9744 3.50136L3.73252 15.3068C3.10733 15.5641 2.57516 16.0054 2.20661 16.5722C1.83806 17.139 1.65055 17.8044 1.66896 18.4802C1.68737 19.1561 1.91083 19.8103 2.30969 20.3562C2.70854 20.9021 3.26395 21.3138 3.90222 21.5367L9.81717 23.5943L13.1132 34.4973C13.1584 34.6428 13.2238 34.7812 13.3074 34.9085C13.3205 34.9281 13.3384 34.9412 13.3515 34.9624C13.4476 35.0962 13.5637 35.2145 13.6957 35.3132C13.7326 35.3421 13.7707 35.3693 13.81 35.3948C13.9645 35.4974 14.1357 35.5724 14.3158 35.6167L14.337 35.6183L14.3468 35.6232C14.4558 35.6451 14.5668 35.6561 14.678 35.6559L14.7074 35.651C14.8745 35.6482 15.0402 35.6196 15.1986 35.5661C15.2361 35.5531 15.2671 35.5335 15.303 35.5172C15.4214 35.4686 15.5337 35.4062 15.6375 35.3312C15.7201 35.261 15.8028 35.1908 15.8855 35.1207L20.2944 30.2533L26.8702 35.3475C27.449 35.7983 28.1615 36.0434 28.8951 36.0442C29.6641 36.0433 30.4093 35.778 31.0059 35.2929C31.6024 34.8077 32.014 34.1322 32.1716 33.3796L37.4959 7.2445C37.6163 6.65653 37.5747 6.04688 37.3755 5.48071C37.1764 4.91454 36.8271 4.41312 36.3651 4.03003ZM15.3242 24.1131C15.0982 24.3387 14.9438 24.6259 14.8804 24.9388L14.3745 27.3929L13.0953 23.1618L19.7282 19.7075L15.3242 24.1131ZM28.8707 32.7677L21.0988 26.7467C20.7736 26.4958 20.3658 26.3766 19.9567 26.4129C19.5475 26.4491 19.1671 26.6383 18.8911 26.9425L17.4781 28.5008L17.9774 26.0745L29.5348 14.517C29.809 14.2411 29.9756 13.8764 30.0046 13.4884C30.0336 13.1005 29.9231 12.715 29.693 12.4014C29.4628 12.0878 29.1282 11.8667 28.7495 11.778C28.3707 11.6893 27.9727 11.7389 27.6273 11.9177L11.041 20.5527L4.96283 18.3287L34.2994 6.59508L28.8707 32.7677Z" fill="#2E2E3A"/>
</svg>
