<svg width="40" height="40" viewBox="0 0 40 40" fill="none" xmlns="http://www.w3.org/2000/svg">
<path d="M19.9999 36.6666C17.7221 36.6666 15.5694 36.2288 13.5416 35.3532C11.5138 34.4777 9.7427 33.2832 8.22825 31.7699C6.71492 30.2566 5.52048 28.486 4.64492 26.4583C3.76937 24.4305 3.33214 22.2777 3.33325 19.9999C3.33325 17.6944 3.77103 15.5344 4.64659 13.5199C5.52214 11.5055 6.71659 9.74214 8.22992 8.22992C9.74325 6.71547 11.5133 5.52103 13.5399 4.64659C15.5666 3.77214 17.7199 3.33436 19.9999 3.33325C22.3055 3.33325 24.4655 3.77103 26.4799 4.64659C28.4944 5.52214 30.2577 6.71659 31.7699 8.22992C33.2844 9.74325 34.4788 11.5071 35.3533 13.5216C36.2277 15.536 36.6655 17.6955 36.6666 19.9999V22.4166C36.6666 24.0555 36.1044 25.4516 34.9799 26.6049C33.8555 27.7582 32.4733 28.3344 30.8333 28.3333C29.8333 28.3333 28.9027 28.111 28.0416 27.6666C27.1805 27.2221 26.4721 26.6388 25.9166 25.9166C25.1666 26.6666 24.2844 27.2571 23.2699 27.6883C22.2555 28.1194 21.1655 28.3344 19.9999 28.3333C17.6944 28.3333 15.7288 27.5205 14.1033 25.8949C12.4777 24.2694 11.6655 22.3044 11.6666 19.9999C11.6666 17.6944 12.4794 15.7288 14.1049 14.1033C15.7305 12.4777 17.6955 11.6655 19.9999 11.6666C22.3055 11.6666 24.271 12.4794 25.8966 14.1049C27.5221 15.7305 28.3344 17.6955 28.3333 19.9999V22.4166C28.3333 23.2221 28.5833 23.8538 29.0833 24.3116C29.5833 24.7694 30.1666 24.9988 30.8333 24.9999C31.4999 24.9999 32.0833 24.7705 32.5833 24.3116C33.0833 23.8527 33.3333 23.221 33.3333 22.4166V19.9999C33.3333 16.361 32.0205 13.2288 29.3949 10.6033C26.7694 7.9777 23.6377 6.66547 19.9999 6.66658C16.361 6.66658 13.2288 7.97936 10.6033 10.6049C7.9777 13.2305 6.66548 16.3621 6.66659 19.9999C6.66659 23.6388 7.97937 26.771 10.6049 29.3966C13.2305 32.0221 16.3621 33.3344 19.9999 33.3332H26.6666C27.1388 33.3332 27.5349 33.4932 27.8549 33.8132C28.1749 34.1332 28.3344 34.5288 28.3333 34.9999C28.3333 35.4721 28.1733 35.8682 27.8533 36.1882C27.5333 36.5082 27.1377 36.6677 26.6666 36.6666H19.9999ZM19.9999 24.9999C21.3888 24.9999 22.5694 24.5138 23.5416 23.5416C24.5138 22.5694 24.9999 21.3888 24.9999 19.9999C24.9999 18.611 24.5138 17.4305 23.5416 16.4583C22.5694 15.486 21.3888 14.9999 19.9999 14.9999C18.611 14.9999 17.4305 15.486 16.4583 16.4583C15.486 17.4305 14.9999 18.611 14.9999 19.9999C14.9999 21.3888 15.486 22.5694 16.4583 23.5416C17.4305 24.5138 18.611 24.9999 19.9999 24.9999Z" fill="#2E2E3A"/>
</svg>
