<svg width="97" height="120" viewBox="0 0 97 120" fill="none" xmlns="http://www.w3.org/2000/svg">
<mask id="path-1-inside-1_601_28686" fill="white">
<path fill-rule="evenodd" clip-rule="evenodd" d="M0 0V88.5143C0 102.595 11.7183 113.845 25.7871 113.272L33.0291 112.977C39.0078 112.733 44.7478 115.339 48.5 120C52.2522 115.339 57.9922 112.733 63.9709 112.977L71.2129 113.272C85.2817 113.845 97 102.595 97 88.5143V0H48.5H0Z"/>
</mask>
<path fill-rule="evenodd" clip-rule="evenodd" d="M0 0V88.5143C0 102.595 11.7183 113.845 25.7871 113.272L33.0291 112.977C39.0078 112.733 44.7478 115.339 48.5 120C52.2522 115.339 57.9922 112.733 63.9709 112.977L71.2129 113.272C85.2817 113.845 97 102.595 97 88.5143V0H48.5H0Z" fill="#202022"/>
<path d="M0 0V-2H-2V0H0ZM25.7871 113.272L25.7056 111.274H25.7056L25.7871 113.272ZM33.0291 112.977L33.1105 114.975H33.1105L33.0291 112.977ZM48.5 120L46.9421 121.254L48.5 123.189L50.0579 121.254L48.5 120ZM63.9709 112.977L63.8895 114.975H63.8895L63.9709 112.977ZM71.2129 113.272L71.2944 111.274L71.2129 113.272ZM97 0H99V-2H97V0ZM2 88.5143V0H-2V88.5143H2ZM25.7056 111.274C12.7725 111.801 2 101.458 2 88.5143H-2C-2 103.731 10.6642 115.89 25.8685 115.27L25.7056 111.274ZM32.9477 110.979L25.7056 111.274L25.8685 115.27L33.1105 114.975L32.9477 110.979ZM50.0579 118.746C45.9081 113.591 39.5598 110.709 32.9477 110.979L33.1105 114.975C38.4557 114.757 43.5875 117.087 46.9421 121.254L50.0579 118.746ZM50.0579 121.254C53.4125 117.087 58.5443 114.757 63.8895 114.975L64.0523 110.979C57.4402 110.709 51.0919 113.591 46.9421 118.746L50.0579 121.254ZM63.8895 114.975L71.1315 115.27L71.2944 111.274L64.0523 110.979L63.8895 114.975ZM71.1315 115.27C86.3358 115.89 99 103.731 99 88.5143H95C95 101.458 84.2275 111.801 71.2944 111.274L71.1315 115.27ZM99 88.5143V0H95V88.5143H99ZM97 -2H48.5V2H97V-2ZM0 2H48.5V-2H0V2Z" fill="#E4E5EA" mask="url(#path-1-inside-1_601_28686)"/>
<mask id="mask0_601_28686" style="mask-type:alpha" maskUnits="userSpaceOnUse" x="0" y="0" width="97" height="120">
<mask id="path-3-inside-2_601_28686" fill="white">
<path fill-rule="evenodd" clip-rule="evenodd" d="M0 0V88.5143C0 102.595 11.7183 113.845 25.7871 113.272L33.0291 112.977C39.0078 112.733 44.7478 115.339 48.5 120C52.2522 115.339 57.9922 112.733 63.9709 112.977L71.2129 113.272C85.2817 113.845 97 102.595 97 88.5143V0H48.5H0Z"/>
</mask>
<path fill-rule="evenodd" clip-rule="evenodd" d="M0 0V88.5143C0 102.595 11.7183 113.845 25.7871 113.272L33.0291 112.977C39.0078 112.733 44.7478 115.339 48.5 120C52.2522 115.339 57.9922 112.733 63.9709 112.977L71.2129 113.272C85.2817 113.845 97 102.595 97 88.5143V0H48.5H0Z" fill="#C6CCD8"/>
<path d="M0 0V-2H-2V0H0ZM25.7871 113.272L25.7056 111.274H25.7056L25.7871 113.272ZM33.0291 112.977L33.1105 114.975H33.1105L33.0291 112.977ZM48.5 120L46.9421 121.254L48.5 123.189L50.0579 121.254L48.5 120ZM63.9709 112.977L63.8895 114.975H63.8895L63.9709 112.977ZM71.2129 113.272L71.2944 111.274L71.2129 113.272ZM97 0H99V-2H97V0ZM2 88.5143V0H-2V88.5143H2ZM25.7056 111.274C12.7725 111.801 2 101.458 2 88.5143H-2C-2 103.731 10.6642 115.89 25.8685 115.27L25.7056 111.274ZM32.9477 110.979L25.7056 111.274L25.8685 115.27L33.1105 114.975L32.9477 110.979ZM50.0579 118.746C45.9081 113.591 39.5598 110.709 32.9477 110.979L33.1105 114.975C38.4557 114.757 43.5875 117.087 46.9421 121.254L50.0579 118.746ZM50.0579 121.254C53.4125 117.087 58.5443 114.757 63.8895 114.975L64.0523 110.979C57.4402 110.709 51.0919 113.591 46.9421 118.746L50.0579 121.254ZM63.8895 114.975L71.1315 115.27L71.2944 111.274L64.0523 110.979L63.8895 114.975ZM71.1315 115.27C86.3358 115.89 99 103.731 99 88.5143H95C95 101.458 84.2275 111.801 71.2944 111.274L71.1315 115.27ZM99 88.5143V0H95V88.5143H99ZM97 -2H48.5V2H97V-2ZM0 2H48.5V-2H0V2Z" fill="#202022" mask="url(#path-3-inside-2_601_28686)"/>
</mask>
<g mask="url(#mask0_601_28686)">
<rect x="0.2146" y="56.5596" width="96.8183" height="60.2151" fill="#E4E5EA"/>
</g>
<path d="M0.238525 56.5938H96.9999" stroke="#E4E5EA" stroke-width="2"/>
<g clip-path="url(#clip0_601_28686)">
<path d="M69.9971 9.40792L65.9357 11.6267C65.8053 11.6979 65.7568 11.8634 65.8279 11.994L65.889 12.1064L59.8725 15.3932L58.2867 12.4803C57.8458 11.6704 57.097 12.3202 57.0638 12.6569L56.5626 15.3271C56.5107 15.5113 56.5114 15.755 56.5513 15.9773L56.4913 16.01L56.5254 16.0727L40.5303 24.1533C40.1035 24.3696 39.8604 24.743 39.972 25.004L38.8693 25.6064L38.5548 25.4698L38.0002 24.4509C37.7257 23.9467 37.0185 23.7908 36.4066 24.0708L29.4399 27.2836C28.845 27.5577 28.3545 28.2595 28.3437 28.8857L28.308 30.9016L27.2627 31.4726C27.1324 31.5438 27.076 32.0864 27.0576 32.7981L28.1512 34.8071L26.6526 33.0295L14.7576 39.5278C13.9416 39.9736 13.3554 40.5989 14.0835 41.9365L16.8241 46.9708C17.3375 47.9139 18.3636 47.4381 19.016 46.6919L27.333 36.6031C27.9703 35.9161 29.4234 34.9697 30.0856 35.1672C30.8149 35.3823 31.2761 35.981 31.2134 36.8661C31.1507 37.7511 30.6464 41.938 30.9039 42.4108C31.1613 42.8837 31.3817 42.7294 31.671 42.5713L33.3707 41.6428C33.7096 41.4577 34.3736 40.9254 33.7723 40.5726C33.1736 40.2184 33.6018 36.5815 33.6018 36.5815L37.2644 34.5806L40.79 41.057C40.9906 41.4254 41.1375 41.4468 41.5311 41.2317L44.2005 39.7734C44.5681 39.5726 44.8406 39.3899 44.67 39.0764L40.9794 32.2969L37.4822 34.3904L40.9746 31.6047L39.7344 29.3266L39.7432 29.3116C39.7906 29.262 39.9915 29.0471 40.064 28.733L38.8011 26.4131L40.2295 28.6392L41.3895 28.0055L40.264 25.5529L41.6521 28.1027C41.7943 28.364 42.2538 28.3569 42.6735 28.0904L57.841 18.4893L57.9945 18.7714L58.336 18.5849L58.1696 18.2792L58.3308 18.1776C58.4789 18.0831 58.5329 17.8842 58.4504 17.7326L58.2357 17.3381L59.7242 16.525L60.2814 17.356L60.7898 17.0783L60.3133 16.2031L66.3299 12.9162L66.4124 13.0678C66.4835 13.1984 66.6487 13.2471 66.779 13.1759L70.8405 10.9571C70.9708 10.8859 71.0194 10.7204 70.9483 10.5898L70.3624 9.51345C70.2912 9.38282 70.1261 9.3341 69.9957 9.40531L69.9971 9.40792ZM16.7162 40.1187C16.3825 40.301 16.2619 40.7193 16.4425 41.0511L17.1677 43.9054L15.6559 41.1283C15.4739 40.7939 15.5985 40.3767 15.9296 40.1959L24.4904 35.5191C24.6364 35.4393 24.7312 35.4146 24.7731 35.4358L16.7135 40.1201L16.7162 40.1187ZM40.7748 34.0085C40.715 33.8988 40.7567 33.7642 40.8636 33.7058C40.9705 33.6474 41.1075 33.6878 41.1658 33.7949L43.8637 38.7508C43.9234 38.8605 43.8817 38.9952 43.7748 39.0536C43.6679 39.112 43.531 39.0716 43.4726 38.9644L40.7748 34.0085ZM39.5756 34.6636C39.5159 34.5539 39.5576 34.4192 39.6645 34.3609C39.7713 34.3025 39.9083 34.3429 39.9666 34.45L42.6645 39.4059C42.7243 39.5156 42.6826 39.6503 42.5757 39.7087C42.4688 39.7671 42.3318 39.7266 42.2735 39.6195L39.5756 34.6636ZM38.3765 35.3187C38.3167 35.209 38.3584 35.0743 38.4653 35.016C38.5722 34.9576 38.7092 34.998 38.7675 35.1051L41.4654 40.061C41.5251 40.1707 41.4834 40.3054 41.3765 40.3638C41.2697 40.4221 41.1327 40.3817 41.0744 40.2746L38.3765 35.3187ZM36.8143 33.8469C36.8911 33.988 36.8404 34.1683 36.697 34.2466L33.7956 35.8316C33.6548 35.9085 33.475 35.8577 33.3967 35.714L32.8307 34.6742C33.2604 34.9852 33.8076 35.0895 34.324 34.9633C34.5625 34.9043 34.538 34.7787 34.3089 34.6869C33.9825 34.5534 33.6926 34.3253 33.4833 34.0092C33.4103 33.9 33.353 33.7822 33.3049 33.6627L35.6745 32.3682C35.8152 32.2913 35.9951 32.3421 36.0733 32.4858L36.8143 33.8469ZM35.9524 28.8777L34.5108 29.6653C34.494 29.566 34.4653 29.4698 34.4141 29.3758C34.3629 29.2817 34.2977 29.2055 34.2235 29.1375L34.2207 29.1323C34.1906 29.1081 34.1605 29.0839 34.1292 29.0637C34.1183 29.0561 34.1074 29.0485 34.0965 29.0409C34.0666 29.0233 34.0354 29.0031 34.0043 28.9895C33.9908 28.9834 33.9747 28.9786 33.9612 28.9724C33.914 28.9541 33.8657 28.9399 33.8187 28.9282C33.7879 28.9213 33.7611 28.9156 33.7318 28.9113C33.7104 28.9094 33.6865 28.909 33.6652 28.9071C33.6332 28.9042 33.6026 28.9039 33.5708 28.9077C33.5509 28.9084 33.5284 28.9106 33.5099 28.9139C33.4756 28.9191 33.4386 28.9258 33.403 28.935C33.386 28.9409 33.3701 28.9428 33.353 28.9488C33.3019 28.9666 33.2507 28.9844 33.2011 29.0114C33.1516 29.0385 33.1075 29.0693 33.0637 29.1068C33.0495 29.118 33.0367 29.1318 33.0251 29.1415C32.998 29.1664 32.9736 29.1899 32.9495 29.2201C32.9355 29.2379 32.9227 29.2517 32.9113 29.268C32.8924 29.2953 32.876 29.3212 32.8597 29.3471C32.8497 29.3661 32.8357 29.3839 32.8272 29.4055C32.8149 29.4326 32.804 29.4623 32.7943 29.4879C32.776 29.5352 32.7618 29.5836 32.7542 29.6318C32.7521 29.6465 32.7473 29.6627 32.7452 29.6774C32.7412 29.7135 32.7398 29.7482 32.7383 29.7828C32.7388 29.7961 32.7393 29.8094 32.7398 29.8227C32.7398 29.86 32.7438 29.8985 32.7504 29.9355L32.7533 29.9407C32.7701 30.04 32.7988 30.1362 32.85 30.2302C32.9012 30.3243 32.9664 30.4005 33.0406 30.4685L29.3258 32.4978C29.1798 32.5776 28.9985 32.5241 28.9189 32.3778C28.8393 32.2315 28.8926 32.0499 29.0385 31.9701L32.7038 29.9678C32.4663 29.5315 32.6288 28.9851 33.0641 28.7473C33.4995 28.5095 34.046 28.6685 34.2835 29.1048L35.6782 28.3429C35.8241 28.2631 36.0054 28.3166 36.0851 28.4629C36.1647 28.6092 36.1114 28.7909 35.9654 28.8706L35.9524 28.8777ZM38.1384 25.5685C38.0647 25.5884 37.9886 25.6164 37.9157 25.6563L30.6843 29.6068L30.5925 28.2266C30.5671 27.8507 30.8059 27.3948 31.1209 27.2092C31.1365 27.2007 31.1548 27.1907 31.1704 27.1822L36.8559 24.449C37.146 24.3108 37.5013 24.3981 37.6335 24.641L38.1384 25.5685ZM56.9541 15.7606C56.9574 15.7045 56.9608 15.6485 56.9764 15.6026L57.6204 13.3934L58.6043 14.8591L56.9515 15.762L56.9541 15.7606ZM57.7974 16.5268L57.6253 16.2107L59.0096 15.4545L59.2103 15.755L57.7974 16.5268Z" fill="#E4E5EA"/>
</g>
<g clip-path="url(#clip1_601_28686)">
<path d="M27.1093 9.40792L31.1708 11.6267C31.3011 11.6979 31.3497 11.8634 31.2786 11.994L31.2174 12.1064L37.234 15.3932L38.8197 12.4803C39.2606 11.6704 40.0095 12.3202 40.0426 12.6569L40.5439 15.3271C40.5958 15.5113 40.595 15.755 40.5552 15.9773L40.6152 16.01L40.581 16.0727L56.5761 24.1533C57.003 24.3696 57.2461 24.743 57.1344 25.004L58.2371 25.6064L58.5516 25.4698L59.1063 24.4509C59.3808 23.9467 60.088 23.7908 60.6999 24.0708L67.6666 27.2836C68.2614 27.5577 68.7519 28.2595 68.7628 28.8857L68.7984 30.9016L69.8437 31.4726C69.9741 31.5438 70.0304 32.0864 70.0489 32.7981L68.9552 34.8071L70.4539 33.0295L82.3489 39.5278C83.1648 39.9736 83.7511 40.5989 83.0229 41.9365L80.2824 46.9708C79.769 47.9139 78.7428 47.4381 78.0904 46.6919L69.7734 36.6031C69.1362 35.9161 67.683 34.9697 67.0208 35.1672C66.2916 35.3823 65.8303 35.981 65.8931 36.8661C65.9558 37.7511 66.46 41.938 66.2026 42.4108C65.9452 42.8837 65.7248 42.7294 65.4354 42.5713L63.7358 41.6428C63.3969 41.4577 62.7329 40.9254 63.3341 40.5726C63.9328 40.2184 63.5046 36.5815 63.5046 36.5815L59.842 34.5806L56.3164 41.057C56.1159 41.4254 55.9689 41.4468 55.5753 41.2317L52.9059 39.7734C52.5384 39.5726 52.2658 39.3899 52.4365 39.0764L56.1271 32.2969L59.6242 34.3904L56.1319 31.6047L57.372 29.3266L57.3633 29.3116C57.3159 29.262 57.1149 29.0471 57.0424 28.733L58.3053 26.4131L56.877 28.6392L55.717 28.0055L56.8424 25.5529L55.4544 28.1027C55.3121 28.364 54.8526 28.3569 54.4329 28.0904L39.2655 18.4893L39.1119 18.7714L38.7704 18.5849L38.9368 18.2792L38.7756 18.1776C38.6275 18.0831 38.5735 17.8842 38.656 17.7326L38.8708 17.3381L37.3822 16.525L36.825 17.356L36.3167 17.0783L36.7931 16.2031L30.7765 12.9162L30.694 13.0678C30.6229 13.1984 30.4577 13.2471 30.3274 13.1759L26.266 10.9571C26.1356 10.8859 26.087 10.7204 26.1581 10.5898L26.7441 9.51345C26.8152 9.38282 26.9804 9.3341 27.1107 9.40531L27.1093 9.40792ZM80.3903 40.1187C80.724 40.301 80.8446 40.7193 80.6639 41.0511L79.9387 43.9054L81.4505 41.1283C81.6326 40.7939 81.5079 40.3767 81.1769 40.1959L72.616 35.5191C72.47 35.4393 72.3752 35.4146 72.3333 35.4358L80.3929 40.1201L80.3903 40.1187ZM56.3317 34.0085C56.3914 33.8988 56.3497 33.7642 56.2428 33.7058C56.136 33.6474 55.999 33.6878 55.9407 33.7949L53.2428 38.7508C53.183 38.8605 53.2247 38.9952 53.3316 39.0536C53.4385 39.112 53.5755 39.0716 53.6338 38.9644L56.3317 34.0085ZM57.5308 34.6636C57.5906 34.5539 57.5489 34.4192 57.442 34.3609C57.3351 34.3025 57.1981 34.3429 57.1398 34.45L54.4419 39.4059C54.3822 39.5156 54.4239 39.6503 54.5308 39.7087C54.6376 39.7671 54.7746 39.7266 54.8329 39.6195L57.5308 34.6636ZM58.73 35.3187C58.7897 35.209 58.748 35.0743 58.6411 35.016C58.5343 34.9576 58.3973 34.998 58.339 35.1051L55.6411 40.061C55.5813 40.1707 55.623 40.3054 55.7299 40.3638C55.8368 40.4221 55.9738 40.3817 56.0321 40.2746L58.73 35.3187ZM60.2921 33.8469C60.2153 33.988 60.266 34.1683 60.4094 34.2466L63.3108 35.8316C63.4516 35.9085 63.6315 35.8577 63.7097 35.714L64.2757 34.6742C63.846 34.9852 63.2988 35.0895 62.7824 34.9633C62.544 34.9043 62.5684 34.7787 62.7976 34.6869C63.1239 34.5534 63.4138 34.3253 63.6231 34.0092C63.6961 33.9 63.7535 33.7822 63.8016 33.6627L61.432 32.3682C61.2912 32.2913 61.1113 32.3421 61.0331 32.4858L60.2921 33.8469ZM61.154 28.8777L62.5956 29.6653C62.6125 29.566 62.6411 29.4698 62.6923 29.3758C62.7435 29.2817 62.8087 29.2055 62.8829 29.1375L62.8857 29.1323C62.9158 29.1081 62.9459 29.0839 62.9772 29.0637C62.9881 29.0561 62.999 29.0485 63.0099 29.0409C63.0398 29.0233 63.0711 29.0031 63.1021 28.9895C63.1156 28.9834 63.1318 28.9786 63.1453 28.9724C63.1924 28.9541 63.2408 28.9399 63.2877 28.9282C63.3185 28.9213 63.3453 28.9156 63.3747 28.9113C63.396 28.9094 63.42 28.909 63.4413 28.9071C63.4733 28.9042 63.5038 28.9039 63.5356 28.9077C63.5555 28.9084 63.578 28.9106 63.5965 28.9139C63.6309 28.9191 63.6678 28.9258 63.7034 28.935C63.7205 28.9409 63.7363 28.9428 63.7534 28.9488C63.8046 28.9666 63.8558 28.9844 63.9053 29.0114C63.9548 29.0385 63.9989 29.0693 64.0428 29.1068C64.057 29.118 64.0698 29.1318 64.0814 29.1415C64.1084 29.1664 64.1328 29.1899 64.157 29.2201C64.171 29.2379 64.1838 29.2517 64.1951 29.268C64.2141 29.2953 64.2304 29.3212 64.2468 29.3471C64.2567 29.3661 64.2707 29.3839 64.2793 29.4055C64.2916 29.4326 64.3025 29.4623 64.3122 29.4879C64.3304 29.5352 64.3447 29.5836 64.3522 29.6318C64.3544 29.6465 64.3591 29.6627 64.3612 29.6774C64.3653 29.7135 64.3667 29.7482 64.3681 29.7828C64.3676 29.7961 64.3671 29.8094 64.3667 29.8227C64.3667 29.86 64.3626 29.8985 64.356 29.9355L64.3532 29.9407C64.3363 30.04 64.3076 30.1362 64.2564 30.2302C64.2052 30.3243 64.1401 30.4005 64.0659 30.4685L67.7806 32.4978C67.9266 32.5776 68.1079 32.5241 68.1875 32.3778C68.2672 32.2315 68.2139 32.0499 68.0679 31.9701L64.4027 29.9678C64.6402 29.5315 64.4777 28.9851 64.0423 28.7473C63.607 28.5095 63.0604 28.6685 62.8229 29.1048L61.4283 28.3429C61.2823 28.2631 61.101 28.3166 61.0214 28.4629C60.9417 28.6092 60.995 28.7909 61.141 28.8706L61.154 28.8777ZM58.968 25.5685C59.0417 25.5884 59.1178 25.6164 59.1908 25.6563L66.4222 29.6068L66.514 28.2266C66.5394 27.8507 66.3005 27.3948 65.9856 27.2092C65.9699 27.2007 65.9517 27.1907 65.936 27.1822L60.2505 24.449C59.9604 24.3108 59.6052 24.3981 59.4729 24.641L58.968 25.5685ZM40.1523 15.7606C40.149 15.7045 40.1457 15.6485 40.1301 15.6026L39.4861 13.3934L38.5022 14.8591L40.1549 15.762L40.1523 15.7606ZM39.309 16.5268L39.4811 16.2107L38.0969 15.4545L37.8961 15.755L39.309 16.5268Z" fill="#E4E5EA"/>
</g>
<path d="M45.4893 96.4614C45.4882 96.4586 45.4858 96.4565 45.482 96.455L45.4781 96.4565C45.4817 96.4581 45.4854 96.4597 45.4893 96.4614ZM7.79999 69.9926C7.18147 70.5019 6.54607 71.0275 6.06349 71.6893C5.85096 71.9807 5.81233 72.2496 5.95442 72.4183C6.10935 72.596 6.38033 72.5821 6.75782 72.3753C9.0273 71.1233 10.9397 70.7791 12.4394 71.3554C14.7611 72.2424 16.8952 73.9558 18.9682 76.59C20.0285 77.9376 20.9794 79.3993 21.8973 80.8133C22.4988 81.7379 23.1157 82.6894 23.7652 83.6045C25.0318 85.4002 27.0323 87.9699 29.779 89.5375C30.5506 89.9811 31.3694 90.331 32.2153 90.5713C33.8721 91.0475 35.5344 91.0892 37.0159 90.6867C37.2102 90.6329 37.4036 90.5885 37.589 90.5476C38.1037 90.427 38.5943 90.316 39.0957 90.0316C39.3403 89.8919 39.5881 89.7368 39.827 89.5946C40.4072 89.2366 41.0114 88.8691 41.6622 88.619C42.4834 88.3013 43.3931 88.183 44.2866 88.2728C44.7502 88.3182 45.1765 88.4113 45.5676 88.5464C45.8142 88.636 46.8009 88.7827 46.8009 88.7827C48.5573 88.8246 50.372 88.8718 52.1539 89.0255C53.0355 89.0966 53.965 89.2053 54.7749 89.6149C55.2323 89.846 55.6425 90.1706 56.0424 90.4808C56.3226 90.7026 56.6104 90.9307 56.9164 91.1233C58.4461 92.1054 60.4907 92.3659 62.6796 91.8552C63.7293 91.6059 64.8304 91.1905 66.1513 90.5373C66.7189 90.2548 67.2803 89.9559 67.8011 89.6734C68.3113 89.3994 68.7054 88.9984 69.0547 88.6384C70.8368 86.8202 72.2398 84.6973 73.7592 82.3123C74.355 81.3801 74.8141 80.3519 75.2586 79.3577C75.809 78.1336 76.3747 76.8658 77.1923 75.784C78.1511 74.5145 79.5151 73.4028 81.3593 72.3907C83.4353 71.2536 85.1729 70.8709 86.6739 71.2259C87.3271 71.3835 87.9503 71.6892 88.4737 72.1098C88.4939 72.1252 88.5215 72.1237 88.5402 72.1115C88.5531 72.0971 88.5587 72.0759 88.5507 72.0557L88.5474 72.0475C88.0767 71.2397 87.5865 70.4068 86.8662 69.7737C86.0545 69.064 85.0664 68.7723 84.2149 68.9896C84.189 68.9952 84.1605 69.0065 84.1324 69.0177L47.7613 68.919L46.5906 68.9346L9.95399 68.9464C9.94823 68.9439 9.94433 68.9454 9.93857 68.9429C9.92488 68.9439 9.91686 68.9471 9.90697 68.9462L9.86984 68.9469L9.86572 68.9486C9.10676 68.9739 8.45391 69.4549 7.79999 69.9926ZM45.9663 85.9132C45.9606 85.9107 45.9564 85.9124 45.951 85.91C44.847 85.716 43.5965 85.4958 42.4166 85.7596C41.6712 85.9251 40.9777 86.2812 40.3056 86.6194L40.1258 86.71C38.3295 87.6185 36.1959 88.5391 34.0002 88.4892C31.6565 88.4324 29.2105 87.3035 26.7315 85.1223C24.5849 83.2356 22.9895 80.8005 22.1188 78.0766C22.0665 77.9096 22.0142 77.7426 21.9662 77.5741C21.7475 76.8583 21.5249 76.1206 21.1014 75.4912C20.4377 74.5162 19.3627 73.9115 18.4132 73.3742L11.6104 69.5399C11.284 69.3554 10.9294 69.1587 10.5459 69.0437L46.6059 69.0318L47.7669 69.0153L83.8602 69.1121C83.4602 69.2856 83.094 69.5442 82.7668 69.7828L76.4768 74.3365C75.4827 75.0565 74.9316 75.8772 74.2101 77.0474C74.0128 77.3657 73.8211 77.7097 73.738 78.0904C73.644 78.5033 73.7054 78.9531 73.8916 79.2451C73.0677 80.9726 72.0475 82.6188 70.8583 84.1351C70.3205 84.8237 69.7433 85.4951 69.136 86.1269C69.0515 86.2214 68.9616 86.3139 68.8732 86.4099C68.3746 86.9373 67.8646 87.4833 67.2854 87.855C65.7672 88.8264 63.8626 89.3787 62.0552 89.3619C60.6952 89.3499 59.2152 89.0004 57.6577 88.3252C57.0904 88.0772 56.5391 87.7522 56.0026 87.4402C55.226 86.9841 54.421 86.516 53.5488 86.2674C51.5191 85.691 49.3894 85.8308 47.3342 85.9691C47.1829 85.9776 47.0268 85.9976 46.9254 86.1084C46.9254 86.1084 46.9229 86.1142 46.919 86.1157L45.9663 85.9132Z" fill="#202022"/>
<g clip-path="url(#clip2_601_28686)">
<path d="M48.234 102.359L48.234 60.6949C48.234 60.5504 48.3531 60.4316 48.498 60.4316C48.6429 60.4316 48.762 60.5504 48.762 60.6949L48.762 102.359C48.762 102.503 48.6429 102.622 48.498 102.622C48.3531 102.622 48.234 102.503 48.234 102.359Z" fill="#202022"/>
<path d="M48.9644 61.4945L50.3494 60.2393L50.3494 60.9327L50.3494 61.8894L48.9644 63.1446L48.9644 61.4945Z" fill="#202022"/>
<path d="M48.0356 61.4945L46.6507 60.2393L46.6507 60.9327L46.6507 61.8894L48.0356 63.1446L48.0356 61.4945Z" fill="#202022"/>
<path d="M48.9644 63.7093L50.3494 62.4541L50.3494 63.1475L50.3494 64.1074L48.9644 65.3595L48.9644 63.7093Z" fill="#202022"/>
<path d="M48.0356 63.7093L46.6507 62.4541L46.6507 63.1475L46.6507 64.1074L48.0356 65.3595L48.0356 63.7093Z" fill="#202022"/>
<path d="M48.9644 65.9252L50.3494 64.6699L50.3494 65.3666L50.3494 66.3233L48.9644 67.5753L48.9644 65.9252Z" fill="#202022"/>
<path d="M48.0356 65.9252L46.6507 64.6699L46.6507 65.3666L46.6507 66.3233L48.0356 67.5753L48.0356 65.9252Z" fill="#202022"/>
<path d="M49.8577 102.583L48.4984 106.972L47.1423 102.583L48.4984 102.188L49.8577 102.583Z" fill="#202022"/>
</g>
<g clip-path="url(#clip3_601_28686)">
<path d="M56.977 100.617L36.1818 64.5353C36.1097 64.4102 35.9474 64.3669 35.8222 64.4393C35.697 64.5117 35.6533 64.6742 35.7254 64.7993L56.5206 100.881C56.5927 101.006 56.755 101.05 56.8802 100.977C57.0054 100.905 57.0491 100.742 56.977 100.617Z" fill="#202022"/>
<path d="M35.949 65.5926L34.123 65.1992L34.4692 65.7998L34.9467 66.6283L36.7726 67.0216L35.949 65.5926Z" fill="#202022"/>
<path d="M36.7532 65.1271L37.3261 63.3463L37.6722 63.9469L38.1497 64.7754L37.5768 66.5562L36.7532 65.1271Z" fill="#202022"/>
<path d="M37.0547 67.5105L35.2288 67.1172L35.5749 67.7177L36.054 68.549L37.8783 68.9396L37.0547 67.5105Z" fill="#202022"/>
<path d="M37.8589 67.0451L38.4319 65.2643L38.778 65.8648L39.2571 66.6961L38.6825 68.4741L37.8589 67.0451Z" fill="#202022"/>
<path d="M38.1602 69.4295L36.3342 69.0361L36.6819 69.6394L37.1594 70.468L38.9838 70.8585L38.1602 69.4295Z" fill="#202022"/>
<path d="M38.9644 68.964L39.5373 67.1832L39.885 67.7866L40.3625 68.6151L39.788 70.3931L38.9644 68.964Z" fill="#202022"/>
<path d="M55.6837 101.624L59.0512 104.744L58.0352 100.264L56.6637 100.601L55.6837 101.624Z" fill="#202022"/>
</g>
<g clip-path="url(#clip4_601_28686)">
<path d="M40.0645 100.617L60.8597 64.5353C60.9318 64.4102 61.0941 64.3669 61.2193 64.4393C61.3445 64.5117 61.3882 64.6742 61.3161 64.7993L40.5209 100.881C40.4488 101.006 40.2865 101.05 40.1613 100.977C40.0361 100.905 39.9924 100.742 40.0645 100.617Z" fill="#202022"/>
<path d="M61.0925 65.5926L62.9185 65.1992L62.5724 65.7998L62.0949 66.6283L60.2689 67.0216L61.0925 65.5926Z" fill="#202022"/>
<path d="M60.2883 65.1271L59.7154 63.3463L59.3693 63.9469L58.8918 64.7754L59.4647 66.5562L60.2883 65.1271Z" fill="#202022"/>
<path d="M59.9868 67.5105L61.8127 67.1172L61.4666 67.7177L60.9875 68.549L59.1632 68.9396L59.9868 67.5105Z" fill="#202022"/>
<path d="M59.1826 67.0451L58.6097 65.2643L58.2635 65.8648L57.7844 66.6961L58.359 68.4741L59.1826 67.0451Z" fill="#202022"/>
<path d="M58.8813 69.4295L60.7073 69.0361L60.3596 69.6394L59.8821 70.468L58.0577 70.8585L58.8813 69.4295Z" fill="#202022"/>
<path d="M58.0771 68.964L57.5042 67.1832L57.1565 67.7866L56.679 68.6151L57.2535 70.3931L58.0771 68.964Z" fill="#202022"/>
<path d="M41.3578 101.624L37.9903 104.744L39.0063 100.264L40.3778 100.601L41.3578 101.624Z" fill="#202022"/>
</g>
<mask id="path-34-inside-3_601_28686" fill="white">
<path fill-rule="evenodd" clip-rule="evenodd" d="M0 0V88.5143C0 102.595 11.7183 113.845 25.7871 113.272L33.0291 112.977C39.0078 112.733 44.7478 115.339 48.5 120C52.2522 115.339 57.9922 112.733 63.9709 112.977L71.2129 113.272C85.2817 113.845 97 102.595 97 88.5143V0H48.5H0Z"/>
</mask>
<path d="M0 0V-2H-2V0H0ZM25.7871 113.272L25.7056 111.274H25.7056L25.7871 113.272ZM33.0291 112.977L33.1105 114.975H33.1105L33.0291 112.977ZM48.5 120L46.9421 121.254L48.5 123.189L50.0579 121.254L48.5 120ZM63.9709 112.977L63.8895 114.975H63.8895L63.9709 112.977ZM71.2129 113.272L71.2944 111.274L71.2129 113.272ZM97 0H99V-2H97V0ZM2 88.5143V0H-2V88.5143H2ZM25.7056 111.274C12.7725 111.801 2 101.458 2 88.5143H-2C-2 103.731 10.6642 115.89 25.8685 115.27L25.7056 111.274ZM32.9477 110.979L25.7056 111.274L25.8685 115.27L33.1105 114.975L32.9477 110.979ZM50.0579 118.746C45.9081 113.591 39.5598 110.709 32.9477 110.979L33.1105 114.975C38.4557 114.757 43.5875 117.087 46.9421 121.254L50.0579 118.746ZM50.0579 121.254C53.4125 117.087 58.5443 114.757 63.8895 114.975L64.0523 110.979C57.4402 110.709 51.0919 113.591 46.9421 118.746L50.0579 121.254ZM63.8895 114.975L71.1315 115.27L71.2944 111.274L64.0523 110.979L63.8895 114.975ZM71.1315 115.27C86.3358 115.89 99 103.731 99 88.5143H95C95 101.458 84.2275 111.801 71.2944 111.274L71.1315 115.27ZM99 88.5143V0H95V88.5143H99ZM97 -2H48.5V2H97V-2ZM0 2H48.5V-2H0V2Z" fill="#E4E5EA" mask="url(#path-34-inside-3_601_28686)"/>
<defs>
<clipPath id="clip0_601_28686">
<rect width="64.9316" height="18.0405" fill="white" transform="matrix(0.877582 -0.479426 0.478123 0.878293 11.4539 37.1055)"/>
</clipPath>
<clipPath id="clip1_601_28686">
<rect width="64.9316" height="18.0405" fill="white" transform="matrix(-0.877582 -0.479426 -0.478123 0.878293 85.6526 37.1055)"/>
</clipPath>
<clipPath id="clip2_601_28686">
<rect width="46.7331" height="3.69865" fill="white" transform="translate(50.3494 60.2393) rotate(90)"/>
</clipPath>
<clipPath id="clip3_601_28686">
<rect width="46.7125" height="3.70028" fill="white" transform="matrix(0.499338 0.866407 0.865643 -0.500662 34.123 65.1992)"/>
</clipPath>
<clipPath id="clip4_601_28686">
<rect width="46.7125" height="3.70028" fill="white" transform="matrix(-0.499338 0.866407 -0.865643 -0.500662 62.9185 65.1992)"/>
</clipPath>
</defs>
</svg>
