<svg width="30" height="30" viewBox="0 0 30 30" fill="none" xmlns="http://www.w3.org/2000/svg">
<path d="M11.2342 17.0509L11.1522 16.0542L10.1555 16.1362L5.68242 16.5044C5.65944 16.5061 5.63642 16.5014 5.61597 16.4908C5.59537 16.4801 5.57822 16.4637 5.56647 16.4437C5.55473 16.4237 5.54887 16.4007 5.54958 16.3775C5.55028 16.3544 5.55744 16.332 5.57025 16.3128C5.57032 16.3127 5.57039 16.3126 5.57046 16.3125L13.5968 4.39269L13.5968 4.39268L13.5969 4.39265L13.5971 4.39237L13.5991 4.39045C13.6012 4.38849 13.6059 4.38485 13.6138 4.38055C13.6307 4.37134 13.6575 4.36208 13.6909 4.35933C13.7243 4.35658 13.7522 4.36134 13.7705 4.36765C13.779 4.37061 13.7841 4.37344 13.7866 4.37501L13.7889 4.37659L13.7891 4.37682L13.7892 4.37686L13.7892 4.37686L23.6563 14.824C23.6564 14.8241 23.6564 14.8241 23.6565 14.8242C23.6723 14.8411 23.6831 14.862 23.6876 14.8848C23.6921 14.9075 23.69 14.9311 23.6817 14.9528C23.6734 14.9745 23.6592 14.9934 23.6406 15.0074C23.6222 15.0212 23.6002 15.0296 23.5773 15.0316L19.1041 15.3998L18.1075 15.4818L18.1895 16.4784L18.8339 24.3085C18.8366 24.3408 18.8263 24.3729 18.8053 24.3976C18.7843 24.4224 18.7544 24.4378 18.722 24.4405L12.0106 24.9928C11.9782 24.9955 11.9462 24.9852 11.9214 24.9642C11.8967 24.9432 11.8813 24.9132 11.8786 24.8809L11.2342 17.0509ZM7.0774 14.5139L5.91534 16.2397L7.98891 16.069L11.376 15.7903L12.0304 23.7422L12.1125 24.7389L13.1091 24.6569L17.5834 24.2886L18.58 24.2066L18.498 23.21L17.8436 15.258L17.9655 15.2479L21.2306 14.9792L23.3042 14.8086L21.8756 13.296L14.5736 5.56452L13.7153 4.65572L13.0171 5.69262L7.0774 14.5139ZM16.6829 13.3467L15.6862 13.4288L15.7683 14.4254L16.4227 22.3774L13.9417 22.5816L13.2872 14.6296L13.2052 13.633L12.2086 13.715L9.89844 13.9051L13.9779 7.84656L18.993 13.1566L17.8015 13.2547L16.6829 13.3467Z" fill="#F2F1E3" stroke="#F2F1E3" stroke-width="2"/>
</svg>
